<?xml version="1.0" encoding="UTF-8" standalone="no"?>
<!-- Created with Inkscape (http://www.inkscape.org/) -->

<svg
   xmlns:dc="http://purl.org/dc/elements/1.1/"
   xmlns:cc="http://creativecommons.org/ns#"
   xmlns:rdf="http://www.w3.org/1999/02/22-rdf-syntax-ns#"
   xmlns:svg="http://www.w3.org/2000/svg"
   xmlns="http://www.w3.org/2000/svg"
   xmlns:inkscape="http://www.inkscape.org/namespaces/inkscape"
   version="1.1"
   width="30"
   height="30"
   id="svg2"
   xml:space="preserve"><metadata
     id="metadata8"><rdf:RDF><cc:Work
         rdf:about=""><dc:format>image/svg+xml</dc:format><dc:type
           rdf:resource="http://purl.org/dc/dcmitype/StillImage" /></cc:Work></rdf:RDF></metadata><defs
     id="defs6" /><g
     transform="matrix(1.25,0,0,-1.25,0,30)"
     id="g10"><g
       transform="scale(0.1,0.1)"
       id="g12"><path
         d="m 239.012,122.176 c 0,-21.598 -5.965,-42.5822 -17.266,-60.8948 -2.058,-3.2968 -6.168,-4.1093 -9.457,-2.2617 -3.293,2.0586 -4.109,6.1719 -2.262,9.4649 10.067,16.0468 15.203,34.5626 15.203,53.6916 0,55.953 -45.425,101.418 -101.328,101.418 C 68,223.594 22.5742,178.129 22.5742,122.176 22.5742,66.2188 68,20.7539 123.902,20.7539 c 26.926,0 46.66,6.7813 63.926,22.2188 3.289,2.875 2.875,4.7304 2.875,5.5468 -1.031,5.1407 -10.695,11.5196 -15.004,13.5782 -4.933,-3.0782 -10.894,-5.1407 -16.437,-5.1407 -1.645,0 -3.496,0.2032 -4.934,0.6133 l -0.613,0.2031 c -13.973,3.7032 -32.891,8.8438 -57.758,33.5313 -24.664,24.6873 -30.2109,45.0473 -33.7031,58.4223 -3.6992,13.578 9.6602,30.652 16.4375,34.562 1.0274,0.613 5.543,2.266 10.2734,2.266 2.6719,0 4.7305,-0.614 6.3711,-1.645 l 10.4761,-35.59 c -5.339,-4.113 -12.1245,-9.465 -14.3901,-11.933 l -1.6407,-1.852 0.8282,-2.469 c 1.8398,-6.168 14.1756,-21.808 19.9296,-27.359 5.762,-5.7617 21.172,-18.1054 27.34,-19.9531 l 2.465,-0.8242 1.847,1.6406 c 2.465,2.4688 7.805,9.0508 11.707,14.4027 l 35.559,-10.4847 c 2.469,-3.9102 1.848,-9.2539 0.828,-12.7539 -0.613,-2.0586 -1.234,-3.4961 -1.437,-3.9063 -0.407,-0.8242 -1.028,-1.6445 -1.844,-2.4687 6.57,-4.1094 14.797,-10.9024 16.855,-19.543 1.032,-4.7344 0.825,-11.9375 -6.992,-18.9258 C 177.137,15.4062 153.906,7.17578 123.902,7.17578 60.6016,7.17578 9.00781,58.8125 9.00781,122.176 c 0,63.359 51.59379,114.996 114.89419,114.996 63.516,0.012 115.11,-51.629 115.11,-114.996"
         inkscape:connector-curvature="0"
         id="path14"
         style="fill:#ce4238;fill-opacity:1;fill-rule:evenodd;stroke:none" /></g></g></svg>