<?xml version="1.0" encoding="UTF-8" standalone="no"?>
<!-- Created with Inkscape (http://www.inkscape.org/) -->

<svg
   xmlns:dc="http://purl.org/dc/elements/1.1/"
   xmlns:cc="http://creativecommons.org/ns#"
   xmlns:rdf="http://www.w3.org/1999/02/22-rdf-syntax-ns#"
   xmlns:svg="http://www.w3.org/2000/svg"
   xmlns="http://www.w3.org/2000/svg"
   xmlns:inkscape="http://www.inkscape.org/namespaces/inkscape"
   version="1.1"
   width="30"
   height="30"
   id="svg2"
   xml:space="preserve"><metadata
     id="metadata8"><rdf:RDF><cc:Work
         rdf:about=""><dc:format>image/svg+xml</dc:format><dc:type
           rdf:resource="http://purl.org/dc/dcmitype/StillImage" /></cc:Work></rdf:RDF></metadata><defs
     id="defs6" /><g
     transform="matrix(1.25,0,0,-1.25,0,30)"
     id="g10"><g
       transform="scale(0.1,0.1)"
       id="g12"><path
         d="m 235.426,122.176 c 0,-21.598 -5.961,-42.5822 -17.262,-60.8948 -2.062,-3.2968 -6.172,-4.1093 -9.461,-2.2617 -3.293,2.0586 -4.109,6.1719 -2.262,9.4649 10.067,16.0468 15.204,34.5626 15.204,53.6916 0,55.953 -45.422,101.418 -101.325,101.418 -55.902,0 -101.3278,-45.465 -101.3278,-101.418 0,-55.9572 45.4258,-101.4221 101.3278,-101.4221 26.926,0 46.657,6.7813 63.922,22.2188 3.293,2.875 2.875,4.7304 2.875,5.5468 -1.027,5.1407 -10.691,11.5196 -15.004,13.5782 -4.933,-3.0782 -10.894,-5.1407 -16.437,-5.1407 -1.641,0 -3.496,0.2032 -4.934,0.6133 l -0.613,0.2031 C 136.156,61.4766 117.242,66.6172 92.3711,91.3047 67.707,115.992 62.1641,136.352 58.668,149.727 c -3.6992,13.578 9.6601,30.652 16.4375,34.562 1.0312,0.613 5.5468,2.266 10.2773,2.266 2.668,0 4.7266,-0.614 6.3672,-1.645 l 10.477,-35.59 c -5.3403,-4.113 -12.1254,-9.465 -14.3911,-11.933 l -1.6406,-1.852 0.8281,-2.469 c 1.8438,-6.168 14.1756,-21.808 19.9336,-27.359 5.758,-5.7617 21.168,-18.1054 27.336,-19.9531 l 2.465,-0.8242 1.847,1.6406 c 2.465,2.4688 7.805,9.0508 11.711,14.4027 l 35.555,-10.4847 c 2.469,-3.9102 1.848,-9.2539 0.828,-12.7539 -0.609,-2.0586 -1.23,-3.4961 -1.437,-3.9063 -0.407,-0.8242 -1.028,-1.6445 -1.844,-2.4687 6.574,-4.1094 14.797,-10.9024 16.859,-19.543 1.028,-4.7344 0.825,-11.9375 -6.996,-18.9258 C 173.551,15.4062 150.324,7.17578 120.32,7.17578 57.0156,7.17578 5.42578,58.8125 5.42578,122.176 c 0,63.359 51.58982,114.996 114.89422,114.996 63.516,0.012 115.106,-51.629 115.106,-114.996"
         inkscape:connector-curvature="0"
         id="path14"
         style="fill:#4c84ae;fill-opacity:1;fill-rule:evenodd;stroke:none" /></g></g></svg>
