<?xml version="1.0" encoding="utf-8"?>
<!-- Generator: Adobe Illustrator 17.0.1, SVG Export Plug-In . SVG Version: 6.00 Build 0)  -->
<!DOCTYPE svg PUBLIC "-//W3C//DTD SVG 1.1//EN" "http://www.w3.org/Graphics/SVG/1.1/DTD/svg11.dtd">
<svg version="1.1" id="Layer_1" xmlns="http://www.w3.org/2000/svg" xmlns:xlink="http://www.w3.org/1999/xlink" x="0px" y="0px"
	 width="67px" height="67px" viewBox="700.269 839.764 67 67" enable-background="new 700.269 839.764 67 67" xml:space="preserve">
<path id="youtube-2-icon" fill="#C02026" d="M739.303,879.577c-0.844,0-1.567,0.538-2.102,1.188v-5.549h-2.387v17.236h2.387v-0.977
	c0.659,0.822,1.38,1.138,2.245,1.138c1.573,0,2.162-1.222,2.162-2.795v-7.055C741.609,881.04,741.034,879.577,739.303,879.577z
	 M739.177,889.473c0,0.405-0.069,0.697-0.206,0.876c-0.26,0.341-0.824,0.325-1.209,0.131c-0.181-0.091-0.367-0.241-0.56-0.448
	v-7.923c0.161-0.175,0.323-0.305,0.487-0.388c0.414-0.209,0.948-0.169,1.233,0.209c0.169,0.222,0.254,0.548,0.254,0.977v6.566
	H739.177z M730.144,879.737h2.364v12.716h-2.364v-1.404c-0.436,0.517-0.889,0.912-1.36,1.182c-1.274,0.73-3.023,0.714-3.023-1.865
	v-10.628h2.364v9.748c0,0.511,0.123,0.857,0.629,0.857c0.462,0,1.103-0.591,1.391-0.952v-9.654H730.144z M725.792,877.718h-2.754
	v14.734h-2.663v-14.734h-2.754v-2.502h8.171V877.718L725.792,877.718z M731.214,864.469v-6.21c0-0.73,0.335-1.273,1.033-1.273
	c0.761,0,1.087,0.526,1.087,1.273v6.21c0,0.727-0.37,1.264-1.038,1.264C731.609,865.732,731.214,865.172,731.214,864.469z
	 M700.269,839.764v67h67v-67H700.269z M737.971,854.561h2.482v10.235c0,0.537,0.13,0.899,0.661,0.899c0.484,0,1.157-0.621,1.459-1
	v-10.134h2.482v13.352h-2.482v-1.474c-1.075,1.276-2.117,1.667-2.868,1.667c-1.331,0-1.734-1.065-1.734-2.384V854.561
	L737.971,854.561z M732.295,854.452c2.012,0,3.568,1.497,3.568,3.586v6.544c0,2.243-1.572,3.578-3.568,3.578
	c-2.407,0-3.637-1.225-3.637-3.578v-6.544C728.659,855.896,730.109,854.452,732.295,854.452z M722.225,849.814l1.929,7.234
	l1.791-7.234h2.84l-3.253,10.757v7.341h-2.795v-7.341l-3.327-10.757H722.225z M754.091,891.022c0,3.143-2.548,5.691-5.692,5.691
	h-29.258c-3.145,0-5.692-2.548-5.692-5.691v-14.379c0-3.143,2.548-5.692,5.692-5.692h29.258c3.145,0,5.692,2.549,5.692,5.692
	V891.022z M746.984,879.416c-2.134,0-3.592,1.533-3.592,3.74v5.707c0,2.289,1.155,3.934,3.412,3.934
	c2.491,0,3.543-1.484,3.543-3.934v-0.954h-2.433v0.884c0,1.107-0.059,1.778-1.057,1.778c-0.952,0-1.032-0.825-1.032-1.778v-2.399
	h4.521v-3.237C750.346,880.858,749.25,879.416,746.984,879.416z M747.914,884.42h-2.089v-1.287c0-0.874,0.18-1.491,1.057-1.491
	c0.851,0,1.032,0.631,1.032,1.491V884.42L747.914,884.42z"/>
</svg>
