<?xml version="1.0" encoding="utf-8"?>
<!-- Generator: Adobe Illustrator 17.0.1, SVG Export Plug-In . SVG Version: 6.00 Build 0)  -->
<!DOCTYPE svg PUBLIC "-//W3C//DTD SVG 1.1//EN" "http://www.w3.org/Graphics/SVG/1.1/DTD/svg11.dtd">
<svg version="1.1" id="Layer_1" xmlns="http://www.w3.org/2000/svg" xmlns:xlink="http://www.w3.org/1999/xlink" x="0px" y="0px"
	 width="67px" height="67px" viewBox="700.269 617.764 67 67" enable-background="new 700.269 617.764 67 67" xml:space="preserve">
<path id="vk-2-icon" fill="#175FA8" d="M700.269,617.764v67h67v-67H700.269z M754.857,665.477c-1.304,0-4.911,0-6.254,0
	c-3.53,0-4.132-2.014-7.041-4.922c-2.628-2.629-4.084-0.613-4.023,3.134c0.016,0.993-0.473,1.788-1.662,1.788
	c-3.704,0-9.027,0.521-14.413-5.292c-5.819-6.282-10.741-17.292-11.17-18.431c-0.428-1.14,0.174-1.701,1.399-1.701
	c1.369,0,5.439,0,6.361,0c1.683,0,1.826,0.864,2.296,1.936c1.953,4.456,6.639,13.406,7.886,8.412c0.716-2.868,1.01-8.977-2.06-9.549
	c-2.176-0.406,3.151-3.213,9.3-1.785c2.252,0.522,2.26,1.534,2.229,3.008c-0.112,5.578-0.785,8.797,0.684,9.746
	c1.404,0.907,5.1-5.034,7.043-9.619c0.536-1.267,0.646-2.148,2.155-2.148c7.552,0,6.982,0,7.78,0c4.073,0-0.53,5.888-4.054,10.457
	c-2.838,3.682-2.684,3.754,0.612,6.812C755.392,660.539,759.777,665.477,754.857,665.477z"/>
</svg>
