<?xml version="1.0" encoding="utf-8"?>
<!-- Generator: Adobe Illustrator 18.0.0, SVG Export Plug-In . SVG Version: 6.00 Build 0)  -->
<!DOCTYPE svg PUBLIC "-//W3C//DTD SVG 1.1//EN" "http://www.w3.org/Graphics/SVG/1.1/DTD/svg11.dtd">
<svg version="1.1" id="Слой_1" xmlns="http://www.w3.org/2000/svg" xmlns:xlink="http://www.w3.org/1999/xlink" x="0px" y="0px"
	 viewBox="-204.5 227.1 38.9 38.9" enable-background="new -204.5 227.1 38.9 38.9" xml:space="preserve">
<g>
	<rect x="-204.5" y="227.1" fill="#C7C8C8" width="38.9" height="38.9"/>
	<g>
		<path fill="#FFFFFF" d="M-179.2,241.6c-0.5,0-0.8-0.4-0.8-0.8v-1.6c0-0.5,0.4-0.8,0.8-0.8h1.6c0.5,0,0.8,0.4,0.8,0.8v1.6
			c0,0.5-0.4,0.8-0.8,0.8H-179.2z"/>
		<path fill="#FFFFFF" d="M-185,243.4c-0.6,0-1.1,0.2-1.6,0.5c0.2-0.1,0.3-0.1,0.5-0.1c0.9,0,1.6,0.7,1.6,1.6c0,0.9-0.7,1.6-1.6,1.6
			c-0.9,0-1.6-0.7-1.6-1.6c0-0.2,0.1-0.3,0.1-0.5c-0.3,0.5-0.5,1-0.5,1.6c0,1.7,1.4,3.1,3.1,3.1c1.7,0,3.1-1.4,3.1-3.1
			C-181.9,244.8-183.3,243.4-185,243.4L-185,243.4z"/>
		<path fill="#FFFFFF" d="M-185,241.6c2.7,0,4.9,2.2,4.9,4.9s-2.2,4.9-4.9,4.9s-4.9-2.2-4.9-4.9S-187.7,241.6-185,241.6 M-185,240
			c-3.6,0-6.6,2.9-6.6,6.6c0,3.6,2.9,6.6,6.6,6.6c3.6,0,6.6-2.9,6.6-6.6C-178.4,242.9-181.4,240-185,240L-185,240z"/>
		<path fill="#FFFFFF" d="M-178.3,235.9h-13.4c-2.2,0-4,1.8-4,4v13.4c0,2.2,1.8,4,4,4h13.4c2.2,0,4-1.8,4-4v-13.4
			C-174.4,237.7-176.1,235.9-178.3,235.9L-178.3,235.9z M-176,243.3h-5.3c0.8,0.9,1.3,2,1.3,3.3c0,2.7-2.2,4.9-4.9,4.9
			s-4.9-2.2-4.9-4.9c0-1.3,0.5-2.4,1.2-3.3h-5.3v-3.4c0-1.3,1.1-2.4,2.4-2.4h13.4c1.3,0,2.4,1.1,2.4,2.4L-176,243.3L-176,243.3z"/>
	</g>
</g>
</svg>
