<?xml version="1.0" encoding="utf-8"?>
<!-- Generator: Adobe Illustrator 18.0.0, SVG Export Plug-In . SVG Version: 6.00 Build 0)  -->
<!DOCTYPE svg PUBLIC "-//W3C//DTD SVG 1.1//EN" "http://www.w3.org/Graphics/SVG/1.1/DTD/svg11.dtd">
<svg version="1.1" id="Layer_1" xmlns="http://www.w3.org/2000/svg" xmlns:xlink="http://www.w3.org/1999/xlink" x="0px" y="0px"
	 viewBox="0 0 294.1 94.7" enable-background="new 0 0 294.1 94.7" xml:space="preserve">
<g>
	<g>
		<path fill-rule="evenodd" clip-rule="evenodd" fill="#0095DA" d="M154.4,24.2l-2.8-2.8l-1-1.9l-8.5-3.8c-4.8-9.7-8.3-1.3-15.4,4.5
			l4.8,1.9l6.6,2.9c1.5,0.6,3,1.2,4.6,1.8c0.1,0.1,0.1,0.1,0.2,0.1l3.9-0.9l3.8-0.9C152.2,25.2,156.5,26.3,154.4,24.2z"/>
		<path fill-rule="evenodd" clip-rule="evenodd" fill="#0095DA" d="M27.2,41.8l4.3-2.8l14.4-1.3l14.4-1.2c2.8,0,14.3,1.8,14.3-1.3
			l1.5-2.9l0-1.4l8.6-7.1c-2.3-2.5-4.1-3,0-2.9l2.9-1.4l2.8,0v2.9l1.4,5.8c0,2.2-1.1,4.3,1.4,4.3c6.6,1.8,6.7,2.1,11.5-2.7l4.4-4.3
			l4.3-4.3l2.9-1.4l4.3-1.4l5.8-2.8l4.3-2.8l3-4.3c2.9-8.9,21.3,4.4,28.4,7.6l24.3,11.9c6.5,3.6,18.5,14.6,24.3,9.1l2.8-1.4l2.9-1.5
			l1.4,1.5l1.5,1.4c2.1,2.1,3,0.9,5.7,0.1h1.5l1.4-1.4l-1.4-1.5l-1.4-2.9c0-0.5,0-0.9,0-1.4l24.2,9c3.8,2,7.6,3.9,11.4,5.9l11.4,1.6
			l14.3,3c3.6,1.3,8.7,3.9,7.1,0.1l-1.4-2.9c-0.3-2.2-1.5-2.2-5.7-3c-3.9,0-6.3-0.3-10-1.6l-21.5-4.6l-18.6-7.5l-17.1-6.1l-4.3,1.4
			l-4.4,2.8l-5.7,1.4l-1.4,0l-2.8,0h-1.4l-19.9-9l-24.2-10.4L134,0l-17.4,8.4L96.5,14L74.9,18l-4.3,2.8l-5.8,4.3l-8.6,4.2L46,30.6
			l-11.5,2.8c-13.6,6-14.6,7-21,7.5c-0.7,0-3.9,8.6-3.9,8.6C11,50.1,21.8,43.9,27.2,41.8z"/>
	</g>
	<path fill-rule="evenodd" clip-rule="evenodd" fill="#0095DA" d="M75.4,71.2c-0.3,0.6-0.9,1.2-1.8,1.6c-0.8,0.5-1.9,0.7-3.2,0.7
		h-0.6h0h-1.3l2.1-4.8h2.3c0.5,0,0.9,0.1,1.3,0.1c0,0,0,0,0,0c0.2,0,0.4,0.1,0.5,0.2c0.4,0.3,0.7,0.6,0.8,1
		C75.6,70.4,75.6,70.8,75.4,71.2L75.4,71.2z M82.9,69.3c-0.1-0.5-0.4-1-0.8-1.4c-0.5-0.4-1.1-0.7-1.9-1c-0.9-0.2-1.8-0.3-3.1-0.3
		h-0.9h0h-4.6c2.6-5.8,3.5-5.9-3.8-5.9l-5.1,11.6c-1.9,4.3-0.3,3.3,5.1,3.3c0,0,4.3-0.1,4.3-0.1c1.9,0,3.4-0.1,5-0.6
		c1.4-0.4,2.7-1,3.7-1.8c0.1-0.1,0.2-0.2,0.3-0.3c0.5-0.4,0.9-0.9,1.2-1.3c0.1-0.2,0.3-0.4,0.4-0.6C82.9,70.3,83,69.8,82.9,69.3z"/>
	<path fill-rule="evenodd" clip-rule="evenodd" fill="#0095DA" d="M21.8,65.7h-4l4-4.2c1.2-1.2,2.3-2.4,3.5-3.7l0.5,7.9H21.8
		L21.8,65.7z M36.7,70.4l-1.6-18.2c-7.4,0-8.5-0.9-13.3,4.2l-0.9,0.9C15.2,63.4,9.4,69.5,3.6,75.6c6.8,0,7.1-2,11.5-6.7h6.7h4.3
		l0.7,6.7C34.5,75.6,36.8,76.7,36.7,70.4z"/>
	<path fill-rule="evenodd" clip-rule="evenodd" fill="#0095DA" d="M58.8,72.3l-1-11.6c-4.7,0-5.4-0.5-8.4,2.7L48.8,64
		c-3.7,3.9-7.3,7.7-11,11.6c4.3,0,4.5-1.3,7.3-4.3c0,0,5.7-6.2,6.5-7l0.3,5l0.2,2l0.4,4.3C57.4,75.6,58.9,76.3,58.8,72.3z"/>
	<path fill-rule="evenodd" clip-rule="evenodd" fill="#0095DA" d="M233.7,60.6h-1.1h-0.7c-3,0-9.8,0-13.7,0c-2.2,0-2.4,1-2.9,2.3
		h5.8l-0.5,1.1l-5.1,11.6h5.8l0.5-1.1l5-11.6l4.6-0.1C232.7,62.8,233.2,61.6,233.7,60.6z"/>
	<path fill-rule="evenodd" clip-rule="evenodd" fill="#0095DA" d="M191.1,64.2c0,0-2.1,2.3-3.4,3.5l-2.3-7c-4.1,0-6.3-0.6-5.5,2.7
		l2.9,9.4c-1.3,1.4-2.6,2.7-2.9,3c3.6,0,5.8-2.6,8.1-5.1v0c0,0,6.6-6.9,9.6-10C194,60.6,193.4,61.7,191.1,64.2z"/>
	<path fill-rule="evenodd" clip-rule="evenodd" fill="#0095DA" d="M206.5,73.5c-1.4,0-2.5-0.3-3.3-0.8c-0.7-0.4-1.2-1.1-1.3-1.9
		c-0.1-0.8,0-1.7,0.4-2.6c0.4-1,1-1.8,1.8-2.7c0.8-0.9,1.8-1.6,2.8-2.1c0.1,0,1-0.7,3.2-0.8h2.7l0.9-2h-5.5c-0.5,0-2.6,0.2-3.4,0.4
		c-1.2,0.2-2.3,0.7-3.5,1.2c-1.1,0.6-2.1,1.3-3,2.2c-0.9,0.9-1.6,1.9-2.1,3.1c-0.6,1.4-0.8,2.6-0.6,3.7c0.2,1,0.7,1.9,1.6,2.5
		c0.9,0.7,2,1.2,3.3,1.4c1.3,0.3,3.2,0.5,4.5,0.4c1.3,0,2.5-0.4,2.5-0.4l0.5-1.7H206.5z"/>
	<path fill-rule="evenodd" clip-rule="evenodd" fill="#0095DA" d="M154.3,60.6c-4.2,0-3.3-0.4-4.8,3.3l-1.3,3.2
		c-2.3,0-3.4-0.1-5.7-0.1l0.9-2.1l1.8-4.3h-1.3c-4.2,0-4-0.4-5.5,3.3l-4.3,10.4l-0.5,1.2h0.5c4.8,0,4.6,0.8,6.3-3.3l1.2-3h1.1l0,0
		h4.3l0,0h0.4l-2.1,5l-0.5,1.2h0.5c4.8,0,4.4,0.8,6.1-3.3l3.1-7.4l1.8-4.3H154.3z"/>
	<path fill-rule="evenodd" clip-rule="evenodd" fill="#0095DA" d="M272.1,60.7c-2.3,0-3.1-0.1-3.5,0.4c0,0-8.2,8.1-10.6,10.4
		l4.7-10.9h-1.2c-3.8,0-4-0.6-5.4,2.7l-0.7,1.7l-3.7,8.9c-0.5,1.7-0.1,1.7,1.6,1.7c0,0,2.2,0,2.8-0.2l0.1,0l0,0
		c2.2-0.4,2.9-1.6,5.1-4l5-5.1l-3.3,7.9l-0.5,1.2h0.5c4.8,0,4.4,0.7,6.1-3.4l3.1-7.3l1.8-4.2H272.1z"/>
	<path fill-rule="evenodd" clip-rule="evenodd" fill="#0095DA" d="M276,65c0,0,0.1-0.2,0.2-0.4c0.5-0.9,1.3-1.7,2.2-2.3
		c0.4-0.3,0.9-0.5,1.5-0.7c1.7-0.7,3.6-0.9,5.8-0.9c4.9,0,8.3-0.9,6.7,3.3L288,75.6l-1.9,0h-3.6l0.6-1.5l4.7-11.7h-1.7
		c-0.7,0-1.4,0.1-2,0.4c-0.6,0.2-1.2,0.6-1.6,1.1c-0.5,0.4-0.8,0.9-1,1.3c-0.3,0.7-0.2,1.4,0.3,1.9c0.4,0.5,1.3,0.7,2.6,0.7
		c0.3,0,0.7,0,1.1,0c-8.8,9.1-6.5,7.7-13.8,7.7l7.3-6.5c-0.8-0.1-1.5-0.4-2.1-0.7c-0.5-0.4-0.8-0.9-1-1.5c-0.1-0.4-0.1-0.9,0.1-1.3
		C275.9,65.4,276,65.2,276,65z"/>
	<path fill-rule="evenodd" clip-rule="evenodd" fill="#0095DA" d="M93.6,60.7c-4.2,0-4-0.4-5.5,3.3l-4.3,10.4l-0.5,1.2h0.5
		c4.8,0,4.6,0.8,6.3-3.3l0.7-1.6h0l3.2-7.6h5.7c-0.1,0.3-0.2,0.5-0.3,0.9L98,67.2c0,0,0,0,0,0l-0.9,2.2h0l-2.1,5l-0.5,1.2h0.5
		c4.8,0,4.4,0.8,6.1-3.3l3.1-7.3l1.8-4.3H93.6z"/>
	<path fill-rule="evenodd" clip-rule="evenodd" fill="#0095DA" d="M132.5,60.6c-2,0-2.8-0.1-3.3,0.2c0,0-12.7,6.5-12.9,6.6l6.1-15.1
		c-7.3,0-7.8-1-10.5,5.2l-6,15c-1,3.2-0.1,3.2,3,3.2l3.3-0.1l13.5-7.1l-2.4,5.7l-0.5,1.2h0.5c4.8,0,4.4,0.7,6.1-3.3l3.1-7.3l1.8-4.3
		H132.5z"/>
	<path fill-rule="evenodd" clip-rule="evenodd" fill="#0095DA" d="M158.9,73.4c0.6-0.6,1.1-1.3,2-2.2l1.7-2l2.6-2.6
		c0.7-0.8,1.5-1.5,2.3-2.3l0.3,5l0.2,2l0.2,2.3C165,73.4,161.7,73.4,158.9,73.4L158.9,73.4z M175.9,73.5c0,0-1.1,0-1.3,0
		c0-0.6-1.1-12.8-1.1-12.8c-4.7,0-5.4-0.5-8.4,2.6l-0.5,0.6c-3,3.2-6,6.3-9.1,9.5c-2.4,0.2-2.7,1-3.3,2.2h22.1
		c1.8,0,2.5-1.1,3.1-2.1H175.9z"/>
	<path fill-rule="evenodd" clip-rule="evenodd" fill="#0095DA" d="M246.5,64.9c-0.2,0.4-0.5,0.8-1,1.2c-0.4,0.4-1,0.7-1.6,1
		c-0.2,0.1-0.4,0.1-0.6,0.2c0,0,0,0,0,0c-0.4,0.1-0.8,0.1-1.3,0.1h-2.1l2.2-4.9h1.2h0h0.6c1.2,0,2,0.2,2.4,0.7
		C246.7,63.8,246.7,64.3,246.5,64.9L246.5,64.9z M253.1,63.3c0-0.1,0-0.2-0.1-0.3c-0.3-0.8-1-1.3-1.9-1.8c-1-0.5-2.3-0.6-4.1-0.6
		h-3.8c0,0,0,0,0,0c-5,0-5.8-1-7.7,3.3l-5.2,11.7c6.8,0,6-0.1,8.6-5.9h4.3h0h0.8c1.1,0,2.1-0.1,3.1-0.4c1-0.2,1.8-0.6,2.6-1
		c0.8-0.4,1.4-0.9,2-1.4c0.5-0.5,0.9-1,1.2-1.6c0.1-0.2,0.2-0.4,0.2-0.6C253.2,64.2,253.2,63.8,253.1,63.3z"/>
	<g>
		<path fill="#0095DA" d="M3.7,88.3l0.7-1.7H8c0.6-2.2-0.8-2.3-1.5-2.3c-1.6,0-2.5,1-2.8,1.6H1.4c0.7-1.5,2.5-3.4,5.6-3.4
			c3.9,0,3.9,2.6,3,4.9c-1.9,4.8-5.4,5.1-6.7,5.1c-2.9,0-3.8-1.6-3.1-3.7h2.3c-0.3,0.9,0,1.8,1.6,1.8c0.9,0,2.4-0.3,3.3-2.3H3.7z"/>
		<path fill="#0095DA" d="M17.2,85.3h2.3l-4.1,3.2l1.5,3.6h-2.4l-1-3h0l-1.2,3h-2l2.7-6.8h2l-1.1,2.7h0L17.2,85.3z"/>
		<path fill="#0095DA" d="M25.9,89.6c-0.5,1.1-1.9,2.8-4.5,2.8c-2.2,0-3.1-1.3-2.2-3.7c0.6-1.6,2.2-3.7,5.2-3.7
			c2.3,0,2.5,1.4,2.1,2.7h-2c0.3-1.1-0.2-1.3-0.8-1.3c-0.4,0-1.6,0.1-2.4,2.2c-0.9,2.3,0.2,2.4,0.6,2.4c1.1,0,1.7-1,1.9-1.5H25.9z"
			/>
		<path fill="#0095DA" d="M28.9,92.2h-2l2.7-6.8h6.7l-2.7,6.8h-2l2.1-5.5H31L28.9,92.2z"/>
		<path fill="#0095DA" d="M43.5,90.2c-1.3,1.9-3.2,2.2-4.4,2.2c-0.9,0-3.6-0.2-2.2-3.7c0.9-2.4,3-3.7,5.3-3.7c3.3,0,2.4,3,2.1,3.8
			L44,89.3h-5.3c-0.2,0.7-0.4,1.8,0.9,1.8c0.6,0,1.3-0.3,1.7-0.9H43.5z M42.4,88.1c0.5-1.5-0.3-1.7-0.8-1.7c-0.3,0-1.5,0-2.3,1.7
			H42.4z"/>
		<path fill="#0095DA" d="M49.5,85.3l-0.3,0.8h0c1.2-1,2.1-1.1,2.6-1.1c1.9,0,2.6,1.4,1.7,3.7c-0.8,2.2-2.6,3.7-4.6,3.7
			c-0.3,0-1.4-0.1-1.7-1l-1.2,3.2h-2l3.6-9.3H49.5z M48.9,91.1c1.2,0,2-1.1,2.5-2.3c0.7-1.9-0.1-2.3-0.7-2.3c-0.6,0-1.8,0.4-2.5,2.3
			C47.7,89.9,47.7,91.1,48.9,91.1z"/>
		<path fill="#0095DA" d="M55.6,86.7l0.5-1.4h6.6l-0.5,1.4h-2.3l-2.1,5.5h-2l2.1-5.5H55.6z"/>
		<path fill="#0095DA" d="M72.1,85.3c0.6,0,2.3,0,1.6,1.7c-0.4,0.9-1.2,1.5-2,1.6l0,0c1,0.2,1.4,0.7,0.9,1.8
			c-0.5,1.4-1.7,1.8-3.2,1.8h-4.1l2.7-6.8H72.1z M68,90.8h1.3c1,0,1.3-0.4,1.4-0.7c0.2-0.5,0.1-0.8-0.9-0.8h-1.3L68,90.8z M69,88
			h1.1c0.3,0,1.1,0,1.4-0.6c0.2-0.6-0.2-0.7-0.8-0.7h-1.1L69,88z"/>
		<path fill="#0095DA" d="M79.7,92.2h-2l2.7-6.8h5.2L85,86.7h-3.2L79.7,92.2z"/>
		<path fill="#0095DA" d="M85.5,88.7c1-2.7,3.3-3.7,5.2-3.7c2.1,0,3.3,1.2,2.3,3.7c-1,2.5-3.1,3.7-5.2,3.7S84.5,91.3,85.5,88.7z
			 M90.8,88.7c0.8-2.2-0.2-2.3-0.7-2.3c-0.5,0-1.7,0.1-2.5,2.3c-0.3,0.9-0.7,2.3,0.7,2.3C89.8,91.1,90.5,89.6,90.8,88.7z"/>
		<path fill="#0095DA" d="M98.2,85.3l-0.3,0.8h0c1.2-1,2.1-1.1,2.6-1.1c1.9,0,2.6,1.4,1.7,3.7c-0.8,2.2-2.6,3.7-4.6,3.7
			c-0.3,0-1.4-0.1-1.7-1l-1.2,3.2h-2l3.6-9.3H98.2z M97.6,91.1c1.2,0,2-1.1,2.5-2.3c0.7-1.9-0.1-2.3-0.7-2.3c-0.6,0-1.8,0.4-2.5,2.3
			C96.4,89.9,96.4,91.1,97.6,91.1z"/>
		<path fill="#0095DA" d="M104.8,92.2h-2l2.7-6.8h2l-1,2.6h2.5l1-2.6h2l-2.7,6.8h-2l1.1-2.9H106L104.8,92.2z"/>
		<path fill="#0095DA" d="M112.7,88.7c1-2.7,3.3-3.7,5.2-3.7c2.1,0,3.3,1.2,2.3,3.7c-1,2.5-3.1,3.7-5.2,3.7S111.7,91.3,112.7,88.7z
			 M118,88.7c0.8-2.2-0.2-2.3-0.7-2.3c-0.5,0-1.7,0.1-2.5,2.3c-0.3,0.9-0.7,2.3,0.7,2.3C117,91.1,117.7,89.6,118,88.7z"/>
		<path fill="#0095DA" d="M124.7,87.5L124.7,87.5l-0.1,0.4l-1.7,4.4h-2l2.7-6.8h2.7l0,4.8h0l3.7-4.8h2.7l-2.7,6.8h-2l1.7-4.4
			l0.2-0.4h0l-3.7,4.7h-1.4L124.7,87.5z"/>
		<path fill="#0095DA" d="M137,88.7c1-2.7,3.3-3.7,5.2-3.7c2.1,0,3.3,1.2,2.3,3.7c-1,2.5-3.1,3.7-5.2,3.7
			C137.2,92.4,136,91.3,137,88.7z M142.4,88.7c0.8-2.2-0.2-2.3-0.7-2.3c-0.5,0-1.7,0.1-2.5,2.3c-0.3,0.9-0.7,2.3,0.7,2.3
			C141.3,91.1,142,89.6,142.4,88.7z"/>
		<path fill="#0095DA" d="M150,91.4c-1.1,0.8-1.9,1.1-2.7,1.1c-2.2,0-1.5-2-1.2-2.8l1.7-4.3h2l-1.5,4c-0.5,1.4-0.3,1.8,0.5,1.8
			c1.3,0,1.9-1.4,2.1-1.9l1.5-3.8h2l-2.7,6.8h-2L150,91.4z"/>
		<path fill="#0095DA" d="M156,85.3h1.2l0.8-2h2l-0.8,2h1.5l-0.5,1.4h-1.5l-1.3,3.3c-0.2,0.4-0.4,0.9,0.4,0.9c0.3,0,0.6-0.1,0.7-0.1
			l-0.5,1.4c-0.6,0.1-1.3,0.2-1.7,0.2c-1.4,0-1.6-0.6-1.1-2l1.4-3.7h-1.2L156,85.3z"/>
		<path fill="#0095DA" d="M164.7,92.2l0.3-0.8h0c-1,0.8-1.6,1.1-2.5,1.1c-1.9,0-2.5-1.5-1.7-3.7c0.8-2.2,2.6-3.6,4.6-3.6
			c0.7,0,1.5,0.3,1.7,0.9l1.3-3.3h2l-3.7,9.4H164.7z M165.4,86.5c-1.2,0-2,1.1-2.5,2.3c-0.6,1.4-0.3,2.3,0.7,2.3
			c0.8,0,1.8-0.6,2.5-2.3C166.7,87.3,166.5,86.5,165.4,86.5z"/>
		<path fill="#0095DA" d="M170.1,88.7c1-2.7,3.3-3.7,5.2-3.7c2.1,0,3.3,1.2,2.3,3.7c-1,2.5-3.1,3.7-5.2,3.7
			C170.2,92.4,169.1,91.3,170.1,88.7z M175.4,88.7c0.8-2.2-0.2-2.3-0.7-2.3c-0.5,0-1.7,0.1-2.5,2.3c-0.3,0.9-0.7,2.3,0.7,2.3
			C174.4,91.1,175.1,89.6,175.4,88.7z"/>
		<path fill="#0095DA" d="M179.2,88.7c1-2.7,3.3-3.7,5.2-3.7c2.1,0,3.3,1.2,2.3,3.7c-1,2.5-3.1,3.7-5.2,3.7
			C179.4,92.4,178.2,91.3,179.2,88.7z M184.6,88.7c0.8-2.2-0.2-2.3-0.7-2.3c-0.5,0-1.7,0.1-2.5,2.3c-0.3,0.9-0.7,2.3,0.7,2.3
			C183.5,91.1,184.2,89.6,184.6,88.7z"/>
		<path fill="#0095DA" d="M194.2,86.5c-0.2,0-0.4,0-0.5,0c-1.2,0-2.3,0.5-3.3,2.9l-1.1,2.8h-2l2.7-6.8h2l-0.4,1.1
			c1-1.1,2-1.4,2.9-1.4h0.2L194.2,86.5z"/>
		<path fill="#0095DA" d="M205.1,89.6c-0.5,1.1-1.9,2.8-4.5,2.8c-2.2,0-3.1-1.3-2.2-3.7c0.6-1.6,2.2-3.7,5.2-3.7
			c2.3,0,2.5,1.4,2.1,2.7h-2c0.3-1.1-0.2-1.3-0.8-1.3c-0.4,0-1.6,0.1-2.4,2.2c-0.9,2.3,0.2,2.4,0.6,2.4c1.1,0,1.7-1,1.9-1.5H205.1z"
			/>
		<path fill="#0095DA" d="M213.6,84.4h0.3c0.9,0,2.5-0.6,3.1-1.7h1.7l-3.7,9.4h-2.2l2.6-6.6h-2.2L213.6,84.4z"/>
		<path fill="#0095DA" d="M222,90c-0.1,0.6,0.5,0.8,1.2,0.8c1,0,1.9-0.6,2.8-2.4c-0.4,0.3-1.3,0.8-2.4,0.8c-2,0-2.8-1.3-2.1-3.2
			c0.6-1.5,2.1-3.6,5-3.6c0.9,0,3.8,0.1,2,4.8c-0.4,1-2.2,5.2-6,5.2c-2.4,0-2.5-1.5-2.4-2.5H222z M225.8,84.1c-1.3,0-2.1,1-2.4,1.9
			c-0.4,1.1,0,1.8,1,1.8c1.3,0,2.1-1,2.4-1.8C227,85.6,227.4,84.1,225.8,84.1z"/>
		<path fill="#0095DA" d="M231.4,85.1c0.4-1.1,1.8-2.7,4.5-2.7c2.4,0,3.1,1.2,2.5,2.7c-0.4,1-1.2,1.7-2.2,2c0.9,0.4,1.3,1.1,0.8,2.3
			c-0.3,0.8-1.4,3-5,3c-3.6,0-3-2.1-2.7-3c0.5-1.2,1.4-1.9,2.6-2.3C231.2,86.9,231,86.1,231.4,85.1z M235,89.3
			c0.2-0.5,0.4-1.5-1.2-1.5c-1.6,0-2.2,1-2.4,1.5c-0.3,0.6-0.2,1.5,1.2,1.5C234.1,90.8,234.8,90,235,89.3z M236.4,85.3
			c0.3-0.7-0.2-1.1-1.1-1.1c-0.8,0-1.7,0.3-2,1.1c-0.4,1.1,0.4,1.3,1.1,1.3C235.5,86.5,236.1,85.9,236.4,85.3z"/>
		<path fill="#0095DA" d="M240.7,85.1c0.4-1.1,1.8-2.7,4.5-2.7c2.4,0,3.1,1.2,2.5,2.7c-0.4,1-1.2,1.7-2.2,2c0.9,0.4,1.3,1.1,0.8,2.3
			c-0.3,0.8-1.4,3-5,3c-3.6,0-3-2.1-2.7-3c0.5-1.2,1.4-1.9,2.6-2.3C240.6,86.9,240.3,86.1,240.7,85.1z M244.4,89.3
			c0.2-0.5,0.4-1.5-1.2-1.5c-1.6,0-2.2,1-2.4,1.5c-0.3,0.6-0.2,1.5,1.2,1.5C243.4,90.8,244.1,90,244.4,89.3z M245.7,85.3
			c0.3-0.7-0.2-1.1-1.1-1.1c-0.8,0-1.7,0.3-2,1.1c-0.4,1.1,0.4,1.3,1.1,1.3C244.9,86.5,245.5,85.9,245.7,85.3z"/>
		<path fill="#0095DA" d="M253.1,92.2h-2l2.7-6.8h5.2l-0.5,1.4h-3.2L253.1,92.2z"/>
		<path fill="#0095DA" d="M258.9,88.7c1-2.7,3.3-3.7,5.2-3.7c2.1,0,3.3,1.2,2.3,3.7c-1,2.5-3.1,3.7-5.2,3.7S257.9,91.3,258.9,88.7z
			 M264.3,88.7c0.8-2.2-0.2-2.3-0.7-2.3c-0.5,0-1.7,0.1-2.5,2.3c-0.3,0.9-0.7,2.3,0.7,2.3C263.2,91.1,263.9,89.6,264.3,88.7z"/>
		<path fill="#0095DA" d="M267.6,90.8c1.1-1.1,2-2.4,2.7-4.2l0.5-1.3h5.9l-2.1,5.5h1.1l-1.3,3.2h-1.8l0.7-1.8H268l-0.7,1.8h-1.8
			l1.1-3.2H267.6z M272.2,86.7l-0.3,0.7c-0.6,1.6-1.5,2.7-2.1,3.4h2.7l1.6-4.1H272.2z"/>
		<path fill="#0095DA" d="M278.6,87.5c1-2.4,3.4-2.5,4.2-2.5c3.1,0,2.5,1.8,2.1,2.6l-1.3,3.1c-0.3,0.7-0.5,1.2-0.1,1.3l0,0.1h-2.2
			l0.1-0.7h0c-0.8,0.7-1.8,0.9-2.7,0.9c-2.2,0-1.8-1.4-1.6-2c0.6-1.6,2.1-1.9,3.4-2.1c1.6-0.2,2.1-0.1,2.4-0.8c0-0.1,0-0.1,0.1-0.2
			c0.3-0.9-0.5-0.9-0.8-0.9c-0.4,0-1.3,0.1-1.7,1.1H278.6z M282.4,88.9c-0.7,0.3-0.6,0.2-1.5,0.4c-0.5,0.1-1.3,0.2-1.6,1
			c-0.3,0.6,0.4,0.8,0.7,0.8c0.5,0,1.6-0.3,2.2-1.7L282.4,88.9z"/>
	</g>
</g>
</svg>
